<?xml version="1.0" encoding="UTF-8"?>
<svg version="1.1" xmlns="http://www.w3.org/2000/svg" width="500" height="112">
<path d="M0 0 C0.20187424 0.74929779 0.40374847 1.49859558 0.61174011 2.27059937 C2.53730352 9.41722719 4.46354855 16.56367082 6.39051342 23.70992088 C7.38057641 27.38171204 8.37039795 31.05356789 9.35961914 34.72558594 C10.3157693 38.2748201 11.27266014 41.82385393 12.22995377 45.37277985 C12.6050625 46.76401489 12.9798874 48.1553265 13.35442734 49.54671478 C15.09177231 56.00060316 16.8314205 62.45293148 18.66650391 68.87988281 C18.90524734 69.71846832 19.14399078 70.55705383 19.38996887 71.42105103 C19.81092681 72.88973318 20.23733822 74.35687104 20.67094421 75.8218689 C21.67121387 79.30703519 22.21614364 82.37103916 22 86 C4.35309993 90.92068 -13.32092146 95.74406171 -31.00354004 100.53460693 C-33.37747331 101.17855313 -35.75092787 101.82426667 -38.12390137 102.47174072 C-41.49927868 103.39225001 -44.87635267 104.30626314 -48.25390625 105.21875 C-49.27881668 105.4996347 -50.30372711 105.78051941 -51.35969543 106.06991577 C-52.30777573 106.32463654 -53.25585602 106.5793573 -54.23266602 106.84179688 C-55.06008804 107.06637573 -55.88751007 107.29095459 -56.74000549 107.52233887 C-59 108 -59 108 -63 108 C-67.87711585 91.57407202 -72.49900372 75.08824389 -76.93676758 58.53833008 C-77.95471402 54.74841042 -78.98219794 50.96114902 -80.00976562 47.17382812 C-80.66203777 44.74755153 -81.31375232 42.32112495 -81.96484375 39.89453125 C-82.27099106 38.77069534 -82.57713837 37.64685944 -82.89256287 36.4889679 C-83.1702803 35.44564804 -83.44799774 34.40232819 -83.73413086 33.32739258 C-83.97949081 32.41605057 -84.22485077 31.50470856 -84.47764587 30.56575012 C-85.00580031 27.97150947 -85.09636912 25.63958449 -85 23 C-74.34818854 19.59205223 -63.65569594 16.46045028 -52.8515625 13.57421875 C-51.37700767 13.17801388 -49.90251139 12.78159105 -48.42807007 12.38496399 C-45.37838102 11.56535491 -42.32810399 10.74798561 -39.27734375 9.93237305 C-35.36461031 8.88616835 -31.4533158 7.83469213 -27.54241371 6.78166485 C-24.51642604 5.96741346 -21.48978696 5.15560653 -18.46293259 4.34458351 C-17.01861324 3.95732815 -15.57448165 3.56937182 -14.13054276 3.1807003 C-12.1288543 2.64234437 -10.12633048 2.10721917 -8.12353516 1.57299805 C-6.98598785 1.268311 -5.84844055 0.96362396 -4.67642212 0.64970398 C-2 0 -2 0 0 0 Z M-28.5390625 36.75 C-29.71162598 37.07484375 -30.88418945 37.3996875 -32.09228516 37.734375 C-33.58808105 38.15203125 -35.08387695 38.5696875 -36.625 39 C-41.36875 40.32 -46.1125 41.64 -51 43 C-48.36 52.9 -45.72 62.8 -43 73 C-36.05844663 72.13550057 -36.05844663 72.13550057 -29.40625 70.58984375 C-28.43945312 70.32236328 -27.47265625 70.05488281 -26.4765625 69.77929688 C-25.00316406 69.36260742 -25.00316406 69.36260742 -23.5 68.9375 C-21.98019531 68.51500977 -21.98019531 68.51500977 -20.4296875 68.08398438 C-17.95167266 67.39434817 -15.47522 66.69958811 -13 66 C-13.65335084 59.11914052 -15.26499275 52.66453965 -17.0625 46 C-17.48499023 44.40865234 -17.48499023 44.40865234 -17.91601562 42.78515625 C-18.60603133 40.18882599 -19.30079203 37.59386689 -20 35 C-23.00214668 35 -25.64992472 35.94606601 -28.5390625 36.75 Z " fill="#E3605B" transform="translate(85,2)"/>
<path d="M0 0 C2.34240855 2.34240855 2.65551349 3.74975174 3.51220703 6.92114258 C3.7923465 7.94593216 4.07248596 8.97072174 4.3611145 10.02656555 C4.65702484 11.13799423 4.95293518 12.24942291 5.2578125 13.39453125 C5.56572723 14.53403732 5.87364197 15.6735434 6.19088745 16.84757996 C6.84136739 19.26182991 7.48841808 21.67700601 8.13232422 24.09301758 C9.11881498 27.78932518 10.11914144 31.48168563 11.12109375 35.17382812 C11.75083718 37.51800443 12.37977021 39.86239861 13.0078125 42.20703125 C13.3077713 43.31238724 13.6077301 44.41774323 13.91677856 45.55659485 C14.19061371 46.59084091 14.46444885 47.62508698 14.74658203 48.69067383 C14.98925812 49.59731277 15.2319342 50.50395172 15.48196411 51.43806458 C16.00605148 54.02992744 16.09526262 56.36342967 16 59 C-1.64690007 63.92068 -19.32092146 68.74406171 -37.00354004 73.53460693 C-39.37747331 74.17855313 -41.75092787 74.82426667 -44.12390137 75.47174072 C-47.49927868 76.39225001 -50.87635267 77.30626314 -54.25390625 78.21875 C-55.27881668 78.4996347 -56.30372711 78.78051941 -57.35969543 79.06991577 C-58.78181587 79.45199692 -58.78181587 79.45199692 -60.23266602 79.84179688 C-61.47379906 80.17866516 -61.47379906 80.17866516 -62.74000549 80.52233887 C-65 81 -65 81 -69 81 C-70.17322847 77.06442471 -71.33745371 73.12624273 -72.5 69.1875 C-72.83386719 68.06794922 -73.16773438 66.94839844 -73.51171875 65.79492188 C-73.82753906 64.72177734 -74.14335938 63.64863281 -74.46875 62.54296875 C-74.76201172 61.55321045 -75.05527344 60.56345215 -75.35742188 59.54370117 C-76 57 -76 57 -76 54 C-75.25951416 53.80365967 -74.51902832 53.60731934 -73.75610352 53.4050293 C-70.35745361 52.50210123 -66.95997658 51.59483254 -63.5625 50.6875 C-61.81549805 50.2244043 -61.81549805 50.2244043 -60.03320312 49.75195312 C-54.33929545 48.22823135 -48.72078882 46.62417996 -43.1472168 44.70776367 C-39.18790388 43.40269851 -35.15733185 42.36510398 -31.125 41.3125 C-30.28453125 41.08755859 -29.4440625 40.86261719 -28.578125 40.63085938 C-27.36769531 40.3127832 -27.36769531 40.3127832 -26.1328125 39.98828125 C-25.40980957 39.79790283 -24.68680664 39.60752441 -23.94189453 39.41137695 C-22 39 -22 39 -19 39 C-19.31807617 37.81241089 -19.31807617 37.81241089 -19.64257812 36.60083008 C-20.60144655 33.0063906 -21.55081497 29.40950812 -22.5 25.8125 C-22.83386719 24.56662109 -23.16773438 23.32074219 -23.51171875 22.03710938 C-23.98544922 20.2340332 -23.98544922 20.2340332 -24.46875 18.39453125 C-24.76201172 17.28956299 -25.05527344 16.18459473 -25.35742188 15.04614258 C-26 12 -26 12 -26 7 C-17.42 4.69 -8.84 2.38 0 0 Z " fill="#306A9C" transform="translate(91,29)"/>
<path d="M0 0 C1.2013427 4.10024455 2.38368348 8.20572777 3.5625 12.3125 C4.07586914 14.06336914 4.07586914 14.06336914 4.59960938 15.84960938 C4.91865234 16.96787109 5.23769531 18.08613281 5.56640625 19.23828125 C6.01415405 20.7857605 6.01415405 20.7857605 6.47094727 22.36450195 C7 25 7 25 6 28 C3.70605469 28.91967773 3.70605469 28.91967773 0.671875 29.68359375 C-0.4318042 29.96936279 -1.5354834 30.25513184 -2.67260742 30.54956055 C-3.85314697 30.84258057 -5.03368652 31.13560059 -6.25 31.4375 C-8.64756788 32.05561665 -11.04470982 32.67538795 -13.44140625 33.296875 C-14.58754395 33.59142578 -15.73368164 33.88597656 -16.91455078 34.18945312 C-20.37509506 35.09853739 -23.77799896 36.10402678 -27.1875 37.1875 C-31.7930199 38.63855422 -36.41115499 40.01677216 -41.0625 41.3125 C-42.29097656 41.65925781 -43.51945312 42.00601563 -44.78515625 42.36328125 C-47.88194034 42.97661759 -49.09671291 42.87110432 -52 42 C-53.03649501 38.25414902 -54.0514437 34.50278991 -55.0625 30.75 C-55.35705078 29.68652344 -55.65160156 28.62304688 -55.95507812 27.52734375 C-56.3659668 25.99013672 -56.3659668 25.99013672 -56.78515625 24.421875 C-57.04176025 23.47924805 -57.29836426 22.53662109 -57.56274414 21.56542969 C-58.01330372 18.92194556 -57.72474268 17.52836821 -57 15 C-49.86424729 13.0412606 -42.72775379 11.08524562 -35.59029579 9.13272858 C-32.2762979 8.22606157 -28.96256482 7.3184496 -25.64941406 6.40869141 C-21.84256115 5.36341173 -18.03459682 4.32221788 -14.2265625 3.28125 C-12.43745956 2.78908997 -12.43745956 2.78908997 -10.61221313 2.2869873 C-8.96072769 1.83652039 -8.96072769 1.83652039 -7.27587891 1.37695312 C-5.8169371 0.97724304 -5.8169371 0.97724304 -4.32852173 0.56945801 C-2 0 -2 0 0 0 Z " fill="#DEAD74" transform="translate(85,2)"/>
<path d="M0 0 C2.34240855 2.34240855 2.65551349 3.74975174 3.51220703 6.92114258 C3.93241623 8.45832695 3.93241623 8.45832695 4.3611145 10.02656555 C4.65702484 11.13799423 4.95293518 12.24942291 5.2578125 13.39453125 C5.56572723 14.53403732 5.87364197 15.6735434 6.19088745 16.84757996 C6.84136739 19.26182991 7.48841808 21.67700601 8.13232422 24.09301758 C9.11881498 27.78932518 10.11914144 31.48168563 11.12109375 35.17382812 C11.75083718 37.51800443 12.37977021 39.86239861 13.0078125 42.20703125 C13.3077713 43.31238724 13.6077301 44.41774323 13.91677856 45.55659485 C14.19061371 46.59084091 14.46444885 47.62508698 14.74658203 48.69067383 C14.98925812 49.59731277 15.2319342 50.50395172 15.48196411 51.43806458 C16 54 16 54 16 59 C7.42 61.31 -1.16 63.62 -10 66 C-12.25254488 59.24236535 -14.27753328 52.53160879 -16.10546875 45.66210938 C-17.08532337 42.05162595 -18.13408551 38.53587947 -19.48828125 35.046875 C-21.22414124 30.55376654 -22.47098236 25.96907959 -23.6875 21.3125 C-23.91244141 20.48427734 -24.13738281 19.65605469 -24.36914062 18.80273438 C-24.58119141 17.99771484 -24.79324219 17.19269531 -25.01171875 16.36328125 C-25.20209717 15.64438721 -25.39247559 14.92549316 -25.58862305 14.18481445 C-26 12 -26 12 -26 7 C-17.42 4.69 -8.84 2.38 0 0 Z " fill="#0096B7" transform="translate(91,29)"/>
<path d="M0 0 C2.64 0 5.28 0 8 0 C8 6.27 8 12.54 8 19 C9.32 19 10.64 19 12 19 C12 12.73 12 6.46 12 0 C14.31 0 16.62 0 19 0 C19 22.11 19 44.22 19 67 C16.69 67 14.38 67 12 67 C12 53.8 12 40.6 12 27 C10.68 27 9.36 27 8 27 C8 40.2 8 53.4 8 67 C5.36 67 2.72 67 0 67 C0 61.72 0 56.44 0 51 C-7.92 51 -15.84 51 -24 51 C-24 34.5 -24 18 -24 1 C-17.4 1 -10.8 1 -4 1 C-4 3.97 -4 6.94 -4 10 C-8.29 10 -12.58 10 -17 10 C-17 20.56 -17 31.12 -17 42 C-11.39 42 -5.78 42 0 42 C0 28.14 0 14.28 0 0 Z " fill="#767676" transform="translate(374,24)"/>
<path d="M0 0 C13.53 0 27.06 0 41 0 C41 7.59 41 15.18 41 23 C41.99 23 42.98 23 44 23 C44 25.64 44 28.28 44 31 C37.4 31 30.8 31 24 31 C24 33.97 24 36.94 24 40 C29.94 40 35.88 40 42 40 C42 48.58 42 57.16 42 66 C39.36 66 36.72 66 34 66 C34 60.39 34 54.78 34 49 C22.45 49 10.9 49 -1 49 C-1 46.03 -1 43.06 -1 40 C4.94 40 10.88 40 17 40 C17 37.03 17 34.06 17 31 C10.73 31 4.46 31 -2 31 C-2 28.36 -2 25.72 -2 23 C9.88 23 21.76 23 34 23 C34 18.05 34 13.1 34 8 C22.78 8 11.56 8 0 8 C0 5.36 0 2.72 0 0 Z " fill="#767676" transform="translate(134,23)"/>
<path d="M0 0 C12.21 0 24.42 0 37 0 C37 2.31 37 4.62 37 7 C27.1 7 17.2 7 7 7 C7 7.99 7 8.98 7 10 C16.9 10 26.8 10 37 10 C37 12.64 37 15.28 37 18 C27.1 18 17.2 18 7 18 C7 18.66 7 19.32 7 20 C17.23 20 27.46 20 38 20 C38 22.64 38 25.28 38 28 C25.46 28 12.92 28 0 28 C0 18.76 0 9.52 0 0 Z " fill="#777777" transform="translate(300,61)"/>
<path d="M0 0 C2.31 0 4.62 0 7 0 C7 10.89 7 21.78 7 33 C8.65 33 10.3 33 12 33 C12 22.11 12 11.22 12 0 C14.64 0 17.28 0 20 0 C20 10.89 20 21.78 20 33 C25.28 33 30.56 33 36 33 C36 35.64 36 38.28 36 41 C21.15 41 6.3 41 -9 41 C-9 38.36 -9 35.72 -9 33 C-6.36 33 -3.72 33 -1 33 C-1.00523682 32.03586182 -1.01047363 31.07172363 -1.01586914 30.07836914 C-1.03392118 26.51327436 -1.04543274 22.94818364 -1.05493164 19.38305664 C-1.0599714 17.83780234 -1.0668032 16.29255284 -1.07543945 14.74731445 C-1.08752076 12.53074971 -1.09323173 10.31424782 -1.09765625 8.09765625 C-1.10281754 7.4028566 -1.10797882 6.70805695 -1.11329651 5.99220276 C-1.11349277 4.3277067 -1.06189129 2.66334501 -1 1 C-0.67 0.67 -0.34 0.34 0 0 Z " fill="#777777" transform="translate(464,45)"/>
<path d="M0 0 C2.64 0 5.28 0 8 0 C8 1.65 8 3.3 8 5 C11.63 5 15.26 5 19 5 C19 7.31 19 9.62 19 12 C16.69 12.33 14.38 12.66 12 13 C12.78375 13.61875 13.5675 14.2375 14.375 14.875 C18.03390431 18.55475277 18.69266589 22.95972053 19 28 C18.69721574 32.36009335 17.47472465 35.39340739 14.75 38.875 C10.61357297 42.07132998 7.19348461 43.27069407 2 42.875 C-2.10480633 42.18432513 -4.84361685 40.78936185 -8 38 C-10.78035205 33.18072312 -11.97378464 28.51811294 -11 23 C-9.55488045 19.15313246 -7.91464933 15.91464933 -5 13 C-7.97 12.505 -7.97 12.505 -11 12 C-11 9.69 -11 7.38 -11 5 C-7.37 5 -3.74 5 0 5 C0 3.35 0 1.7 0 0 Z M-1.375 20.5 C-3.34688753 23.53367312 -3.64275043 25.51951801 -3.44921875 29.08984375 C-3.08174841 31.28834847 -3.08174841 31.28834847 -0.875 33.5625 C1.93012288 35.23292375 1.93012288 35.23292375 5.125 35 C8.0071978 34.19640943 8.0071978 34.19640943 9.875 32.375 C11.46134558 29.02604821 11.45746657 26.65973254 11 23 C9.52006844 20.43661311 9.52006844 20.43661311 7 19 C3.39853135 18.39975523 1.72140596 18.54437518 -1.375 20.5 Z " fill="#767676" transform="translate(415,22)"/>
<path d="M0 0 C2.31 0 4.62 0 7 0 C7 1.98 7 3.96 7 6 C15.58 6 24.16 6 33 6 C33 4.02 33 2.04 33 0 C35.31 0 37.62 0 40 0 C40 9.24 40 18.48 40 28 C26.8 28 13.6 28 0 28 C0 18.76 0 9.52 0 0 Z M7 14 C7 15.98 7 17.96 7 20 C15.58 20 24.16 20 33 20 C33 18.02 33 16.04 33 14 C24.42 14 15.84 14 7 14 Z " fill="#767676" transform="translate(191,61)"/>
<path d="M0 0 C9.9 0 19.8 0 30 0 C30 6.93 30 13.86 30 21 C22.74 21 15.48 21 8 21 C8 22.65 8 24.3 8 26 C15.59 26 23.18 26 31 26 C31 28.64 31 31.28 31 34 C20.77 34 10.54 34 0 34 C0 27.07 0 20.14 0 13 C7.26 13 14.52 13 22 13 C22 11.35 22 9.7 22 8 C14.74 8 7.48 8 0 8 C0 5.36 0 2.72 0 0 Z " fill="#767676" transform="translate(188,25)"/>
<path d="M0 0 C2.31 0 4.62 0 7 0 C7 1.65 7 3.3 7 5 C10.96 5 14.92 5 19 5 C19 7.31 19 9.62 19 12 C16.69 12.33 14.38 12.66 12 13 C12.804375 13.928125 13.60875 14.85625 14.4375 15.8125 C18.14662033 20.09225422 18.28669079 24.01176936 18.21484375 29.49609375 C17.81276042 34.18219214 15.98038266 36.96359547 12.8125 40.3125 C7.94594291 43.23243425 3.74152127 43.26565579 -1.6875 42.4375 C-5.95239438 40.58669678 -7.36496443 38.79755126 -10 35 C-11.82822756 29.51531732 -11.74608915 23.95404302 -9.6875 18.5625 C-8.26087194 16.39613887 -6.96180526 14.68154736 -5 13 C-7.97 12.505 -7.97 12.505 -11 12 C-11 9.69 -11 7.38 -11 5 C-7.37 5 -3.74 5 0 5 C0 3.35 0 1.7 0 0 Z M-2.5 21.0625 C-4.44772841 24.87680147 -4.06123799 26.90665347 -3 31 C-1.30207184 34.25088039 -1.30207184 34.25088039 1.875 34.8125 C5.14044754 35.00842685 6.41330266 34.940023 9 33 C11.09679403 30.30412197 10.99510821 28.907056 10.8125 25.4375 C10.20971597 22.14571165 10.20971597 22.14571165 8.875 20.0625 C4.72073093 17.70841419 1.10643023 18.08719506 -2.5 21.0625 Z " fill="#767676" transform="translate(252,22)"/>
<path d="M0 0 C2.31 0 4.62 0 7 0 C7 2.97 7 5.94 7 9 C11.62 9 16.24 9 21 9 C21 6.03 21 3.06 21 0 C23.31 0 25.62 0 28 0 C28 10.89 28 21.78 28 33 C18.76 33 9.52 33 0 33 C0 22.11 0 11.22 0 0 Z M7 17 C7 19.64 7 22.28 7 25 C11.62 25 16.24 25 21 25 C21 22.36 21 19.72 21 17 C16.38 17 11.76 17 7 17 Z " fill="#777777" transform="translate(296,24)"/>
<path d="M0 0 C12.87 0 25.74 0 39 0 C39 15.84 39 31.68 39 48 C36.69 48 34.38 48 32 48 C32 35.13 32 22.26 32 9 C21.44 9 10.88 9 0 9 C0 6.03 0 3.06 0 0 Z " fill="#777777" transform="translate(458,25)"/>
<path d="M0 0 C13.53 0 27.06 0 41 0 C41 7.59 41 15.18 41 23 C38.69 23 36.38 23 34 23 C34 18.05 34 13.1 34 8 C22.78 8 11.56 8 0 8 C0 5.36 0 2.72 0 0 Z " fill="#777777" transform="translate(405,68)"/>
<path d="M0 0 C2.31 0 4.62 0 7 0 C7 4.95 7 9.9 7 15 C17.56 15 28.12 15 39 15 C39 17.64 39 20.28 39 23 C26.13 23 13.26 23 0 23 C0 15.41 0 7.82 0 0 Z " fill="#777777" transform="translate(245,66)"/>
<path d="M0 0 C2.31 0 4.62 0 7 0 C7 6.27 7 12.54 7 19 C8.98 19 10.96 19 13 19 C13 21.64 13 24.28 13 27 C11.02 27 9.04 27 7 27 C7 33.27 7 39.54 7 46 C4.69 46 2.38 46 0 46 C0 30.82 0 15.64 0 0 Z " fill="#777777" transform="translate(276,23)"/>
<path d="M0 0 C2.31 0 4.62 0 7 0 C7 5.28 7 10.56 7 16 C8.98 16 10.96 16 13 16 C13 18.64 13 21.28 13 24 C11.02 24 9.04 24 7 24 C7 30.27 7 36.54 7 43 C4.69 43 2.38 43 0 43 C0 28.81 0 14.62 0 0 Z " fill="#777777" transform="translate(439,23)"/>
<path d="M0 0 C2.31 0 4.62 0 7 0 C7 4.62 7 9.24 7 14 C8.98 14 10.96 14 13 14 C13 16.64 13 19.28 13 22 C11.02 22 9.04 22 7 22 C7 26.62 7 31.24 7 36 C4.69 36 2.38 36 0 36 C0 24.12 0 12.24 0 0 Z " fill="#767676" transform="translate(330,23)"/>
<path d="M0 0 C2.31 0 4.62 0 7 0 C7 12.21 7 24.42 7 37 C4.69 37 2.38 37 0 37 C0 24.79 0 12.58 0 0 Z " fill="#767676" transform="translate(224,23)"/>
</svg>
